#!OML:ASF F:\VICON\USERDATA\INSTALL\rory3\rory3.ASF
:FULLY-SPECIFIED
:DEGREES
924
root -4.84173 17.2838 2.11103 -506.629 -14.3985 -544.225
lowerback -17.8773 -0.48377 -1.56219
upperback -20.876 -6.29432 0.241176
thorax -13.5231 -5.32694 1.33322
lowerneck -6.21071 2.6965 -0.44894
upperneck 17.4909 2.34588 4.1866
head 6.26184 1.12876 1.53951
rclavicle 2.34566e-014 5.08889e-014
rhumerus 336.857 -45.6054 -345.985
rradius 14.9658
rwrist 32.3201
rhand 9.31781 0.955952
rfingers 7.12502
rthumb 34.479 -25.7202
lclavicle 2.34566e-014 5.08889e-014
lhumerus 58.2129 -21.0476 24.9373
lradius 29.44
lwrist -11.241
lhand 8.30564 22.22
lfingers 7.12502
lthumb 33.5176 49.1096
rfemur -50.9588 18.0337 12.5167
rtibia 23.414
rfoot -60.8995 -38.9925
rtoes 53.1666
lfemur 5.31359 16.2055 -19.5157
ltibia 3.81667e-014
lfoot -17.3143 38.3859
ltoes 40.8862
925
root -4.849 17.2812 2.05727 -506.256 -14.1062 -544.263
lowerback -18.1401 -0.353825 -1.62888
upperback -20.9915 -6.21949 0.112573
thorax -13.5535 -5.33818 1.22908
lowerneck -5.68969 2.68301 -0.365331
upperneck 16.8663 2.3634 4.1909
head 5.97481 1.14494 1.51344
rclavicle 1.11319e-014 2.06736e-014
rhumerus 336.656 -46.6216 -345.256
rradius 14.9522
rwrist 33.5661
rhand 9.60002 1.05068
rfingers 7.12502
rthumb 34.7469 -25.5641
lclavicle 1.11319e-014 2.06736e-014
lhumerus 58.4648 -20.1736 25.6734
lradius 29.2148
lwrist -12.4857
lhand 8.57354 22.1535
lfingers 7.12502
lthumb 33.7722 48.9875
rfemur -51.2539 18.3002 12.1711
rtibia 23.4083
rfoot -61.0431 -39.1097
rtoes 53.0398
lfemur 5.06316 16.4465 -19.6664
ltibia -1.27222e-014
lfoot -18.6246 38.103
ltoes 42.8899
926
root -4.86063 17.2807 2.00854 -506.048 -13.9464 -544.038
lowerback -18.2381 -0.186308 -1.26642
upperback -21.0555 -6.09301 0.0165301
thorax -13.6269 -5.36202 0.938209
lowerneck -5.47299 2.64431 -0.169951
upperneck 16.4208 2.34128 4.10681
head 5.80246 1.14604 1.44549
rclavicle 2.5842e-015 2.78299e-015
rhumerus 337.29 -44.3532 -345.948
rradius 15.1648
rwrist 31.3724
rhand 9.67636 0.846945
rfingers 7.12502
rthumb 34.8193 -25.7511
lclavicle 2.5842e-015 2.78299e-015
lhumerus 59.1617 -19.8905 24.3687
lradius 29.4498
lwrist -11.6345
lhand 8.34492 22.8049
lfingers 7.12502
lthumb 33.5549 49.6864
rfemur -51.3655 18.6025 12.1615
rtibia 23.3287
rfoot -61.1935 -38.9636
rtoes 52.9977
lfemur 4.86015 16.7229 -19.5366
ltibia 1.59028e-014
lfoot -18.7744 38.2853
ltoes 43.7385
927
root -4.87086 17.2814 1.96608 -506.009 -13.741 -543.818
lowerback -17.922 0.0164063 -0.901209
upperback -21.1677 -5.92147 -0.121591
thorax -13.9987 -5.35542 0.650398
lowerneck -5.72303 2.61331 -0.0971496
upperneck 16.5537 2.26547 4.20762
head 5.88916 1.12359 1.46541
rclavicle 4.05521e-014 5.725e-014
rhumerus 337.603 -42.9704 -346.19
rradius 15.3107
rwrist 30.2126
rhand 9.72913 0.739132
rfingers 7.12502
rthumb 34.8694 -25.8473
lclavicle 4.05521e-014 5.725e-014
lhumerus 59.8145 -19.7441 23.0236
lradius 29.7426
lwrist -10.7277
lhand 8.0532 23.199
lfingers 7.12502
lthumb 33.2776 50.1402
rfemur -51.3214 18.9993 12.2023
rtibia 23.2979
rfoot -61.2917 -38.9083
rtoes 53.0504
lfemur 4.78744 17.037 -19.4372
ltibia 1.59028e-014
lfoot -17.8348 38.946
ltoes 43.6408
928
root -4.87578 17.2735 1.92358 -505.924 -13.3911 -543.584
lowerback -17.9111 0.231032 -0.709496
upperback -21.1943 -5.68936 -0.235819
thorax -14.0664 -5.29346 0.440361
lowerneck -5.76413 2.52562 -0.121345
upperneck 16.4072 2.15279 4.27936
head 5.85165 1.077 1.48387
rclavicle 1.69961e-014 2.42517e-014
rhumerus 337.302 -44.6685 -345.39
rradius 15.2196
rwrist 32.0384
rhand 9.84054 0.820869
rfingers 7.12502
rthumb 34.9751 -25.741
lclavicle 1.69961e-014 2.42517e-014
lhumerus 60.4232 -19.3756 22.1964
lradius 30.0094
lwrist -10.4127
lhand 8.15747 23.3285
lfingers 7.12502
lthumb 33.3767 50.2485
rfemur -51.4056 19.53 12.1429
rtibia 23.2322
rfoot -61.4676 -39.1815
rtoes 52.7966
lfemur 4.69875 17.4775 -19.3824
ltibia -1.59028e-014
lfoot -18.3299 39.0506
ltoes 43.7389
929
root -4.87801 17.2614 1.88762 -505.662 -12.7451 -543.625
lowerback -18.0168 0.353347 -0.94358
upperback -21.1528 -5.51841 -0.322608
thorax -13.9446 -5.19437 0.467403
lowerneck -6.09999 2.47509 -0.21044
upperneck 16.2674 2.11256 4.35582
head 5.86465 1.07259 1.52407
rclavicle -1.21259e-014 -2.18663e-014
rhumerus 337.285 -46.0151 -344.97
rradius 15.1644
rwrist 32.9866
rhand 10.1045 0.922386
rfingers 7.12502
rthumb 35.2254 -25.5807
lclavicle -1.21259e-014 -2.18663e-014
lhumerus 60.9774 -18.6765 21.5219
lradius 30.1565
lwrist -10.2468
lhand 8.15297 23.4524
lfingers 7.12502
lthumb 33.3725 50.3733
rfemur -51.7427 20.0846 11.5829
rtibia 23.1888
rfoot -61.5712 -39.6129
rtoes 52.4777
lfemur 4.43552 18.018 -19.7745
ltibia -2.54444e-014
lfoot -19.7844 38.9159
ltoes 43.9925
930
root -4.88101 17.2552 1.85932 -505.494 -12.361 -543.531
lowerback -18.0201 0.416657 -0.912668
upperback -21.1039 -5.42485 -0.320515
thorax -13.8749 -5.15144 0.451762
lowerneck -6.39776 2.54306 -0.459844
upperneck 16.0948 2.22743 4.62122
head 5.85164 1.14727 1.65969
rclavicle 3.79679e-014 5.1684e-014
rhumerus 337.506 -46.438 -344.893
rradius 15.1799
rwrist 32.9141
rhand 10.2229 1.02432
rfingers 7.12502
rthumb 35.3377 -25.4522
lclavicle 3.79679e-014 5.1684e-014
lhumerus 61.3347 -17.6215 21.7613
lradius 29.957
lwrist -11.1303
lhand 8.50112 23.2179
lfingers 7.12502
lthumb 33.7034 50.067
rfemur -52.0003 20.5067 11.3106
rtibia 23.1816
rfoot -61.6711 -39.8769
rtoes 52.2712
lfemur 4.19971 18.4173 -19.8974
ltibia -3.81667e-014
lfoot -21.7517 38.4623
ltoes 45.1936
931
root -4.89376 17.2531 1.82545 -505.341 -12.3774 -543.24
lowerback -18.0373 0.506961 -0.486843
upperback -21.2401 -5.42499 -0.27439
thorax -14.0736 -5.24087 0.293836
lowerneck -5.94168 2.64072 -0.559547
upperneck 15.5718 2.39178 4.75806
head 5.60098 1.22964 1.7166
rclavicle 3.97569e-015 -7.15625e-015
rhumerus 337.804 -46.949 -344.747
rradius 15.1926
rwrist 33.4848
rhand 10.2172 0.940401
rfingers 7.12502
rthumb 35.3323 -25.5374
lclavicle 3.97569e-015 -7.15625e-015
lhumerus 61.4365 -16.9322 22.0916
lradius 29.7542
lwrist -11.9833
lhand 8.98305 22.9018
lfingers 7.12502
lthumb 34.1612 49.6496
rfemur -52.1393 20.6929 11.4672
rtibia 23.1816
rfoot -61.8683 -39.7771
rtoes 52.3008
lfemur 3.97508 18.5926 -19.6558
ltibia -1.90833e-014
lfoot -23.6593 37.8596
ltoes 46.4644
932
root -4.90832 17.2489 1.78912 -505.168 -12.465 -543.015
lowerback -18.0382 0.629638 -0.0592786
upperback -21.406 -5.40675 -0.339352
thorax -14.3403 -5.34083 0.0198927
lowerneck -5.54567 2.65305 -0.402303
upperneck 15.3046 2.40895 4.70812
head 5.45252 1.2363 1.66647
rclavicle -4.57205e-015 -2.14687e-014
rhumerus 338.366 -45.6896 -345.202
rradius 15.2834
rwrist 32.1771
rhand 9.82026 0.424658
rfingers 7.12502
rthumb 34.9558 -26.1417
lclavicle -4.57205e-015 -2.14687e-014
lhumerus 61.8039 -16.9435 21.2194
lradius 29.8051
lwrist -10.6182
lhand 7.96882 23.4354
lfingers 7.12502
lthumb 33.1974 50.3938
rfemur -52.2324 20.7733 11.6218
rtibia 23.1758
rfoot -61.9989 -39.6601
rtoes 52.3782
lfemur 3.73425 18.6742 -19.4436
ltibia -2.8625e-014
lfoot -24.3585 37.8694
ltoes 46.5457
933
root -4.91864 17.2442 1.7616 -505.008 -12.4176 -542.796
lowerback -17.9747 0.751008 0.305251
upperback -21.4873 -5.33196 -0.397237
thorax -14.5187 -5.38442 -0.217763
lowerneck -5.70512 2.6816 -0.428219
upperneck 15.4592 2.4089 4.88417
head 5.52512 1.24637 1.73
rclavicle -6.67916e-014 -5.88403e-014
rhumerus 338.783 -44.6272 -345.567
rradius 15.3624
rwrist 30.9053
rhand 9.57238 0.189549
rfingers 7.12502
rthumb 34.7206 -26.4313
lclavicle -6.67916e-014 -5.88403e-014
lhumerus 62.0674 -16.2646 21.5959
lradius 29.6668
lwrist -11.8218
lhand 8.22487 22.9959
lfingers 7.12502
lthumb 33.4408 49.902
rfemur -52.3817 20.9687 11.6771
rtibia 23.1676
rfoot -62.1109 -39.6421
rtoes 52.645
lfemur 3.42637 18.8722 -19.3267
ltibia -3.49861e-014
lfoot -24.1146 38.4981
ltoes 46.2078
934
root -4.91969 17.2388 1.73846 -504.823 -11.9747 -542.869
lowerback -17.8577 0.791189 0.0898735
upperback -21.5263 -5.29251 -0.43958
thorax -14.6287 -5.3494 -0.125925
lowerneck -5.98983 2.79641 -0.658727
upperneck 15.5817 2.53394 5.23883
head 5.59921 1.32382 1.89323
rclavicle -2.0773e-014 -4.77083e-015
rhumerus 339.557 -41.9382 -346.493
rradius 15.616
rwrist 27.9223
rhand 9.52484 -0.0323715
rfingers 7.12502
rthumb 34.6755 -26.6636
lclavicle -2.0773e-014 -4.77083e-015
lhumerus 62.316 -15.7522 21.1513
lradius 29.6792
lwrist -11.6609
lhand 7.58446 23.1459
lfingers 7.12502
lthumb 32.8318 50.1815
rfemur -52.6142 21.3355 11.2239
rtibia 23.1728
rfoot -62.4474 -39.6161
rtoes 52.6679
lfemur 3.10716 19.2326 -19.6924
ltibia -1.27222e-014
lfoot -23.6064 39.5424
ltoes 45.4122
935
root -4.91861 17.2329 1.71527 -504.759 -11.6201 -542.839
lowerback -17.6358 0.812325 -0.0723745
upperback -21.5063 -5.23104 -0.442251
thorax -14.712 -5.28518 -0.019959
lowerneck -6.41596 2.84538 -0.886132
upperneck 15.5652 2.59328 5.58396
head 5.65624 1.37761 2.05043
rclavicle 4.96962e-016 -9.34288e-015
rhumerus 339.979 -40.1599 -346.963
rradius 15.8775
rwrist 25.7165
rhand 9.53923 -0.31621
rfingers 7.12502
rthumb 34.6892 -26.9443
lclavicle 4.96962e-016 -9.34288e-015
lhumerus 62.6138 -15.0727 21.1031
lradius 29.6172
lwrist -11.7515
lhand 7.31371 23.2104
lfingers 7.12502
lthumb 32.5742 50.2995
rfemur -52.7625 21.7273 10.9619
rtibia 23.2008
rfoot -62.5571 -39.9993
rtoes 52.4912
lfemur 2.97236 19.5737 -19.816
ltibia -2.8625e-014
lfoot -22.3518 41.4137
ltoes 42.9897
936
root -4.91583 17.2285 1.69627 -504.673 -11.5251 -542.756
lowerback -17.4533 0.765448 -0.0862615
upperback -21.4939 -5.27261 -0.398151
thorax -14.7915 -5.28963 0.0498956
lowerneck -6.63535 2.85041 -1.06559
upperneck 15.3265 2.60866 5.89035
head 5.61104 1.40768 2.17804
rclavicle 1.8487e-014 2.5842e-015
rhumerus 340.124 -40.3396 -346.847
rradius 15.8845
rwrist 25.5375
rhand 9.43773 -0.204764
rfingers 7.12502
rthumb 34.5929 -26.8549
lclavicle 1.8487e-014 2.5842e-015
lhumerus 62.789 -14.185 21.9573
lradius 29.3504
lwrist -12.6075
lhand 8.03367 22.6872
lfingers 7.12502
lthumb 33.259 49.6324
rfemur -52.9055 21.9528 10.9015
rtibia 23.2506
rfoot -62.5614 -40.1833
rtoes 52.3509
lfemur 2.82918 19.7316 -19.7485
ltibia -8.5875e-014
lfoot -21.6203 42.7629
ltoes 41.8016
937
root -4.91382 17.2211 1.68002 -504.543 -11.4626 -542.77
lowerback -17.3438 0.716139 -0.163918
upperback -21.5357 -5.35627 -0.405912
thorax -14.9116 -5.32722 0.098424
lowerneck -6.38425 2.87124 -1.06889
upperneck 14.9787 2.64761 5.99831
head 5.45625 1.43152 2.20502
rclavicle 3.12092e-014 3.02153e-014
rhumerus 339.857 -42.5325 -346.098
rradius 15.6945
rwrist 27.5691
rhand 9.41129 0.524049
rfingers 7.12502
rthumb 34.5678 -26.1319
lclavicle 3.12092e-014 3.02153e-014
lhumerus 63.0946 -14.2422 20.8419
lradius 29.4962
lwrist -10.1562
lhand 6.92441 23.3998
lfingers 7.12502
lthumb 32.2037 50.5647
rfemur -53.05 22.0704 10.7708
rtibia 23.2793
rfoot -62.9365 -39.7963
rtoes 52.656
lfemur 2.67785 19.8038 -19.7846
ltibia 6.67916e-014
lfoot -22.9428 42.2323
ltoes 43.2808
938
root -4.91853 17.2137 1.6626 -504.531 -11.4855 -542.467
lowerback -17.2935 0.743616 0.162798
upperback -21.4933 -5.31942 -0.368474
thorax -14.8947 -5.34507 -0.0384824
lowerneck -6.35118 2.89754 -1.00537
upperneck 14.8471 2.6792 6.04757
head 5.40895 1.45423 2.20931
rclavicle -4.80065e-014 -1.03368e-014
rhumerus 339.635 -43.6436 -345.708
rradius 15.6688
rwrist 28.191
rhand 9.1063 0.791387
rfingers 7.12502
rthumb 34.2782 -25.9302
lclavicle -4.80065e-014 -1.03368e-014
lhumerus 63.4017 -14.082 19.8691
lradius 29.6609
lwrist -8.82787
lhand 6.41784 23.5455
lfingers 7.12502
lthumb 31.7214 50.807
rfemur -53.0869 22.2902 10.9941
rtibia 23.2579
rfoot -63.158 -39.663
rtoes 52.6938
lfemur 2.6404 19.9834 -19.4708
ltibia -2.8625e-014
lfoot -23.8369 41.5522
ltoes 44.528
